<svg xmlns="http://www.w3.org/2000/svg" xmlns:xlink="http://www.w3.org/1999/xlink" width="1862" height="820" fill="none" xmlns:v="https://vecta.io/nano"><style><![CDATA[.S{fill:#000}.T{fill:#fff}.U{fill:#004e87}.V{fill:#43200a}.W{fill-opacity:.05}.X{fill:#ffc292}.Y{fill-opacity:.8}.Z{fill:#858787}.a{fill:#cb9566}]]></style><g clip-path="url(#A)"><path d="M1116.65 476.41a239.34 239.34 0 0 0-43.72-16.72l-16.45-4.5H936.77l-48 8.92L876 918.17h229a20.14 20.14 0 0 0 7.82-1.578 20.2 20.2 0 0 0 10.96-11.177 20.29 20.29 0 0 0 1.42-7.855l-8.55-421.15z" fill="#98b1e2"/><g fill="#f5f5f5"><path d="M1138.78 485.41l7.31 4.32c7.76 4.591 14.34 10.939 19.2 18.534 4.87 7.595 7.88 16.225 8.8 25.196l22.74 221.8a164.09 164.09 0 0 0 17.77 59.2l77.92 149.21c1.64 3.121 2.12 6.718 1.37 10.161s-2.68 6.512-5.47 8.669l-45.42 35.35c-1.72 1.35-3.72 2.3-5.85 2.8-2.13.49-4.34.51-6.48.06s-4.16-1.36-5.91-2.67a14.92 14.92 0 0 1-4.22-4.92L1130.81 847c-10.74-19.889-16.97-41.901-18.24-64.47l-17.81-316.13 36.91 15.44c2.45 1.021 4.83 2.214 7.11 3.57h0zm-216.95-28.29l-13.44 812.41-102.7-2.06c-4.487 0-8.923-.95-13.017-2.78-4.094-1.84-7.753-4.52-10.738-7.87a31.81 31.81 0 0 1-6.582-11.57c-1.354-4.28-1.787-8.79-1.273-13.25l82.5-751.28s15.79-19.05 67-23.94l-1.75.34z"/><path d="M881.65 465.93c-97.89 33.27-99.6 176.43-139.55 252.36-12.1 22.91-12.17 41.31 15.09 60.34 45 31.45 64.59 68.19 92.82 115.14 11.86 19.74 28.43 14.49 40.87 2.47 9.58-9.24 23.27-26.87 31.31-39.29 6-9.3 9.09-13.12 1.06-26.16-21.63-35.11-44-89.36-79-116.2 11.42-43.29 15.86-98.39 32.11-141.49C892.58 530 896 510 889.73 467.21c-2.84 1.46-4.87-1.09-8.08-1.28h0z"/></g><path d="M1079.6 616.309c2.93-10.697-3.37-21.741-14.07-24.667-10.69-2.926-21.74 3.373-24.66 14.07a20.08 20.08 0 0 0 14.07 24.667c10.69 2.926 21.74-3.373 24.66-14.07z" fill="#333"/><g class="Z"><path d="M1069.38 618.5a11.87 11.87 0 0 0-1.64-16.707c-5.06-4.162-12.54-3.429-16.71 1.636a11.88 11.88 0 0 0 1.64 16.706c5.07 4.162 12.54 3.43 16.71-1.635zM953.7 564.82a42.08 42.08 0 0 1 29.475 12.821c7.742 8.006 11.994 18.754 11.825 29.889l3.32 50.07a29.1 29.1 0 0 1-1.673 11.789 29.09 29.09 0 0 1-6.257 10.131l-12.41 13c-.334.35-.794.553-1.277.564a1.83 1.83 0 0 1-1.303-.504c-.35-.334-.553-.794-.564-1.278s.17-.952.504-1.302l12.4-13c2.418-2.541 4.282-5.556 5.477-8.853s1.692-6.807 1.463-10.307l-3.33-50.14v-.15c.171-10.178-3.702-20.009-10.769-27.335a38.44 38.44 0 0 0-26.931-11.745 1.83 1.83 0 0 1-.737-.114c-.236-.088-.45-.224-.631-.398a1.82 1.82 0 0 1-.419-.617 1.83 1.83 0 0 1 .028-1.461c.105-.228.255-.433.443-.601a1.83 1.83 0 0 1 .645-.374c.239-.079.491-.108.741-.085h-.02z"/></g><path d="M953.73 563.001a43.93 43.93 0 0 1 43.08 44.65c-.008.479-.111.952-.303 1.391a3.63 3.63 0 0 1-.812 1.17 3.66 3.66 0 0 1-1.198.771 3.67 3.67 0 0 1-2.794-.05 3.65 3.65 0 0 1-1.17-.812 3.66 3.66 0 0 1-.77-1.199 3.67 3.67 0 0 1-.253-1.401 36.62 36.62 0 0 0-10.261-26.034c-6.732-6.977-15.955-11-25.649-11.186a3.67 3.67 0 0 1-1.392-.303 3.65 3.65 0 0 1-1.17-.812 3.66 3.66 0 0 1-.77-1.199 3.67 3.67 0 0 1-.253-1.401 3.66 3.66 0 0 1 .303-1.392 3.64 3.64 0 0 1 3.412-2.193h0z" fill="#333"/><path d="M982.89 681.841l2.85 2.67c.185.173.335.381.44.612a1.94 1.94 0 0 1 .171.734c.008.254-.033.506-.123.744a1.92 1.92 0 0 1-.398.64l-8.25 8.76a3.89 3.89 0 0 1-5.49.18c-.373-.349-.674-.769-.885-1.234a3.9 3.9 0 0 1-.345-1.479c-.016-.511.068-1.02.248-1.498a3.9 3.9 0 0 1 .802-1.289l8.25-8.79c.176-.183.386-.329.619-.43a1.92 1.92 0 0 1 1.477-.027c.236.092.452.231.634.407h0z" class="U"/><path d="M953.93 564.82c-11.128-.187-21.877 4.04-29.896 11.757A42.09 42.09 0 0 0 911.14 606L906 655.94c-.403 3.992.023 8.023 1.251 11.842s3.234 7.342 5.889 10.348l11.93 13.46c.321.362.773.582 1.256.611s.957-.135 1.319-.456a1.82 1.82 0 0 0 .611-1.255c.029-.483-.135-.958-.456-1.32l-11.9-13.46a25.41 25.41 0 0 1-6.25-19.39l5.13-50v-.15c.197-10.177 4.422-19.86 11.748-26.927s17.155-10.941 27.332-10.773c.25.023.503-.006.741-.085a1.82 1.82 0 0 0 1.088-.975 1.81 1.81 0 0 0 .166-.727c.005-.251-.042-.501-.138-.733a1.82 1.82 0 0 0-.419-.617c-.18-.175-.395-.311-.631-.399a1.83 1.83 0 0 0-.737-.114z" class="Z"/><path d="M954 563.001c-11.629-.199-22.862 4.225-31.233 12.3a43.91 43.91 0 0 0-13.417 30.77 3.67 3.67 0 0 0 .253 1.401 3.66 3.66 0 0 0 .77 1.199c.333.344.731.621 1.17.812a3.65 3.65 0 0 0 2.794.05 3.66 3.66 0 0 0 1.198-.771 3.65 3.65 0 0 0 .813-1.17 3.64 3.64 0 0 0 .302-1.391 36.61 36.61 0 0 1 11.188-25.646c6.977-6.73 16.339-10.418 26.032-10.254a3.67 3.67 0 0 0 1.402-.253 3.66 3.66 0 0 0 1.198-.771 3.65 3.65 0 0 0 .813-1.17 3.64 3.64 0 0 0 .302-1.391 3.63 3.63 0 0 0-.253-1.402 3.64 3.64 0 0 0-.77-1.198 3.66 3.66 0 0 0-1.17-.813c-.44-.191-.912-.294-1.392-.302z" fill="#333"/><path d="M920.55 680.721l-2.94 2.57a1.9 1.9 0 0 0-.463.594 1.92 1.92 0 0 0-.199.726 1.91 1.91 0 0 0 .096.747 1.93 1.93 0 0 0 .376.653l7.93 9.08c.334.386.742.701 1.199.929a3.89 3.89 0 0 0 1.464.397 3.88 3.88 0 0 0 1.504-.197c.483-.164.929-.422 1.313-.759a3.89 3.89 0 0 0 .926-1.2c.226-.457.361-.954.395-1.463a3.87 3.87 0 0 0-.951-2.817l-7.93-9.08a1.93 1.93 0 0 0-.596-.461c-.227-.112-.474-.179-.727-.196a1.93 1.93 0 0 0-.746.099c-.24.082-.461.21-.651.378h0z" class="U"/><path d="M1007.82 178.29s-50.23-29.16-64.81 0-10 25.52-33.68 26.21c-17.44.5-36.65 23.76-31.13 40.22s15.21 16.66 8.73 28-12 7.65-20.08 15.75-6.48 21.06 0 29.16 16.37 9 17.83 17.83c1.63 10 1.94 17.6-4.54 22.46s-4.71 22.73 4.54 26.15c21.09 7.79 25.86-14 34 0 10.49 18 21.07 29.16 37.27 16.2s47-4.33 64.81 4.31 71.29 10.27 72.91-10.79-4.56-27 6.79-39.92 21.61-11.6 16.75-34.28-29.88-32.73-26.64-42.46 20.84-8.1 21.69-22.69-.76-25.92-33.17-42.12-32.39-59.95-71.27-34.03h0z" class="V"/><g class="a"><path d="M1022.81 387.76l-.53 27.31c-.3 15.74 8.31 30.55 22.52 37.33a52.47 52.47 0 0 0 11.31 3.89c0 49.68-14.35 68.52-68.31 68.52s-51.39-68.52-51.39-68.52 30.78-5.36 36.34-25c3-10.73 1.85-43.58 1.85-43.58l48.21.05zm35.3-73.01c-5.4 12.63-3.61 25.5 4 28.76s18.16-4.34 23.57-17 3.61-25.51-4-28.76-18.16 4.38-23.57 17zm-117.67 0c5.4 12.63 3.61 25.5-4 28.76s-18.16-4.34-23.56-17-3.62-25.51 4-28.76 18.12 4.38 23.56 17z"/></g><g fill="#333"><path d="M974.38 417.5l-.61 7.33c-4.702.346-9.106 2.436-12.347 5.86a18.91 18.91 0 0 0-5.173 12.65L954 566.71a3.67 3.67 0 0 1-.303 1.392 3.65 3.65 0 0 1-.812 1.17 3.64 3.64 0 0 1-2.6 1.023c-.48-.009-.953-.111-1.392-.303a3.64 3.64 0 0 1-1.94-2.01c-.176-.446-.262-.923-.253-1.402l2.3-123.37c.2-13.81 11.8-24.98 25.38-25.71h0zm74.02 35.32l14.18 144.89c.1.964-.2 1.927-.81 2.676s-1.5 1.223-2.47 1.319a3.65 3.65 0 0 1-2.67-.81 3.67 3.67 0 0 1-1.32-2.465l-14.18-144.9c-.55-5.568-2.54-10.896-5.78-15.455s-7.62-8.191-12.7-10.534-10.68-3.318-16.25-2.825-10.921 2.435-15.51 5.634l-1-8a39.34 39.34 0 0 1 18.67-5.062c6.55-.107 13.02 1.422 18.83 4.448s10.77 7.454 14.43 12.882 5.92 11.684 6.55 18.202h.03z"/></g><path d="M1022.37 410.6l-.09 4.47c-.15 7.653 1.81 15.199 5.69 21.8 3.89 6.62-71.509 15.93-60.849 4.28a24.28 24.28 0 0 0 5.63-9.81c1.25-4.43 2-20.74 2-20.74h47.619z" class="a"/><path opacity=".5" d="M1022.31 405.36c-.25-4 .06-5.14.87-9.64-4.89 5.43-13.15 7.08-18.95 7.43-12.19.73-19.57-8.64-30.12-13.12.69 7 1 1.29.55 8.37.17-4.28-.28 7.23-.32 7.68 1.4 1.84 12.73 16.86 24.31 17.63 15.46 1.03 22.35-15.36 23.66-18.35h0z" fill="#a97d57"/><path d="M999.51 406.321c40.8 0 73.88-42.855 73.88-95.72s-33.08-95.72-73.88-95.72-73.88 42.855-73.88 95.72 33.077 95.72 73.88 95.72z" class="a"/><path d="M1072.79 298.49L1019.17 223s-40.91 62.84-92.62 74.91a2.21 2.21 0 0 1-1.038.004 2.22 2.22 0 0 1-.926-.469c-.268-.227-.478-.515-.612-.839s-.191-.676-.164-1.026c6.53-66.08 75.701-97.64 75.701-97.64s72.379 23.54 73.279 100.55z" class="V"/><path d="M1023.41 364.032c-10.64 7.662-37.637-.403-44.962 1.925-3.311 0 11.175 15.817 23.692 15.817 12.51 0 27.81-17.742 21.27-17.742z" fill="#f9ecec"/><path d="M1004.98 338.951c1.79 3.025 1.69 2.485.45 4.79-.84 1.584-2.85 3.061-4.04 4.357-2.609 2.845 8.76 2.197 10.77.036 1.69-1.8 5.74-4.789 6.58-7.202.99-2.881-1.02-3.997-3.03-5.762-5.73-5.041-9.47-11.379-11.33-18.797-.74-2.953-5.494 12.279.6 22.614v-.036z" fill="#b5865e"/><g class="V"><path d="M1016.6 300.373c-2.87-1.76-2.85-5.382.6-6.891 14.2-3.588 24.7.651 32.51 7.976a85.19 85.19 0 0 0 2.25 2.008c1.06 1.603-.24 2.697-1.74 2.565-8.82-6.205-17.29-6.041-22.13-5.861-2.61.097-5.5 1.068-7.35 1.169-2.12.116-3.62-.643-4.14-.966zm-29.951-3c2.865-1.76 2.85-5.382-.603-6.891-14.201-3.588-24.698.651-32.51 7.976-.709.665-1.502 1.355-2.247 2.008-1.06 1.603.236 2.697 1.741 2.565 8.816-6.205 17.283-6.041 22.129-5.861 2.609.097 5.495 1.068 7.348 1.169 2.124.116 3.616-.643 4.142-.966z"/></g><g fill="#573518"><ellipse cx="1031" cy="316.5" rx="8" ry="9.5"/><ellipse cx="971" cy="316.5" rx="8" ry="9.5"/></g><g class="S"><path d="M1105.5 471c-25-10.625-49-16-49-16h-4.5c-2.5-1-5.94-1.721-8.5-3-5-2.5-11.5-9-11.5-9l5.5 12 18.5 9.5 39 24.5 55 33s5.5-13.5 9.5-21.5c-11-13-29-18.875-54-29.5z" class="W"/><path d="M294.32 394.65s-20.6 45.89-61.94 63.29c-30 12.65-27.81 65.91.19 115.1 0 0-1.38-56.55 34.89-73.93s28.23-92.37 26.86-104.46z"/></g><g class="X"><path d="M476.79 703.54c22.11-50 33.23-118.45 4.11-149.86-17.44-18.8-42.91-14.47-63.71-26.49-25-14.48-29.11-41.06-31-72.45a241.73 241.73 0 0 1 1.18-38.32c-19.15 8.14-30.12 24.86-52.23 23.52-10.53-.63-24.77-2.67-33.64-12.52.24 35.33 8.77 45.56-4.61 78.42-8.64 21.26-34.07 44.62-48.37 51.2-23.48 10.78-1.25 41.07 2.74 73.22 10.92 88 38.06 160.68 96.15 182 33.32 12.2 77.63-32.3 100.83-60.31 9.89-11.95 20-29.07 28.55-48.41h0z"/><path d="M299.46 499.07c9.62-27.7 2.26-38.86 2-71.65 8.87 9.85 23.11 11.89 33.64 12.52 22.11 1.34 33.08-15.38 52.23-23.52-1.408 12.722-1.802 25.535-1.18 38.32 1 16.38 2.57 31.44 7.4 44.16L387 510.19l-84.33-4.08a30.81 30.81 0 0 1-3.21-7.04h0z"/></g><path opacity=".5" d="M304.28 466.07c-.36-6.82-3.23-31.77-4.71-39.94 8.88 9.85 25 13.18 35.57 13.81 22.11 1.34 33.08-15.38 52.23-23.52a241.73 241.73 0 0 0-1.18 38.32l1 12c-2.54 3.33-20.89 31.25-41.9 32.65-28.09 1.86-38.65-27.89-41.01-33.32h0z" fill="#a97d57"/><path d="M438.15 307.87c1.29 12 3.47 39.56 1.26 51.62-.08.36 0-2.25 0-2.4 24.35-2 12.59 28.38 6.66 39.71-1.88 3.59-4.81 8.61-9.09 10.32-3 1.2-8 .43-10.62-.42-7.86 35.47-32.6 46.73-37.25 51.36-22.87 22.77-46.61 25.9-74.88 12.25-21.23-10.25-41.36-35.25-51.41-61.39-5.81 6-15.26-1.57-17.92-5.36-4.83-6.9-6.83-15.55-7.65-23.74-.6-5.92-1.84-27.26 12.36-19.93-4.84-22.84-4.24-47.73 3.36-70.73 6.18-18.75 16-38.29 33.06-51.56 24.28-18.93 58.33-17.94 87.92-13.21 45.56 7.27 60.4 48.09 64.2 83.48h0z" class="X"/><g class="S"><path d="M343.7 221.63s33 81.22 96.75 124.46c0 0 35.21-124.4-96.75-124.46z"/><path d="M344.27 221.63S277.61 336 249.66 359.89c-20.01-53.89 17.8-156.06 94.61-138.26z"/></g><path d="M463.29 313.77L225.3 316s-3.49-62.32 37.75-102.06l6-5.34c9.696-7.942 20.691-14.15 32.5-18.35 47.57-17.23 87-1.33 111.68 15 2.43 1.59 4.72 3.2 6.84 4.79 7.612 5.468 14.628 11.723 20.93 18.66 0 0 23.06 27.37 22.29 85.07z" class="U"/><g fill="#003b65"><path d="M307.329 315.27l-14.08.13c-2-45.55-23-94.38-28.6-102.91 1.384-1.39 2.85-2.696 4.39-3.91 3.86 5.62 36.05 56.06 38.29 106.69zm89.17-.9l-13.07.13c-.27-3.29.37-78.3 32.59-107.42a45.69 45.69 0 0 1 4 2.9c-30.55 25.64-23.58 103.62-23.52 104.39z"/><path d="M225.3 316s63.39 15 111.13 14.46 126.86-16.79 126.86-16.79L225.3 316z"/></g><path d="M299.57 499.11H232c-31.52 0-57.3 26.57-57.3 59.06-5.5 212.91-6.52 377.63-3.38 497.45l351.53 5.07-4.9-502.52c0-32.49-25.79-59.06-57.31-59.06h-66.83l-48.55 80.94s-44.6-73.39-45.69-80.94h0z" fill="#7892b7"/><g class="U"><path d="M345.26 577.65l37.97 27.01 41.09-105.55-30.72-.21-48.34 78.75z"/><path d="M346.52 577.65l-37.97 27.01-41.09-105.55 30.73-.21 48.33 78.75z"/></g><path d="M423.45 594.681l162.31 204.69c14.16 21.09 43.44 26.47 65.06 12 21.62-14.51 27.71-43.65 13.55-64.75l-158.71-225.4-82.21 73.46z" fill="#7892b7"/><path d="M350.191 856.59c.041-1.351-.399-2.672-1.24-3.73l-20-22.66c2.099-5.434 3.842-10.999 5.22-16.66 3.333-.96 8.123-2.086 14.37-3.38l13.16-2.84a7.31 7.31 0 0 0 3.45-2c2.28-2.713 1.77-16.823-1.53-42.33-.247-1.494-1.008-2.856-2.15-3.85a5.72 5.72 0 0 0-3.9-1.47l-29.05-1.47c-2.024-4.935-4.502-9.672-7.4-14.15l15.85-26a5.11 5.11 0 0 0 .745-1.879c.12-.67.105-1.357-.045-2.021-.229-1.431-.968-2.731-2.08-3.66L307.501 685c-2.32-1.93-4.83-2-7.56-.17-5.067 3.634-12.704 10.414-22.91 20.34a95.97 95.97 0 0 0-15.66-4.89l-6-28.11a7.21 7.21 0 0 0-2.28-3.71c-1.92-1.6-8.38-1.956-19.38-1.07s-18.87 1.914-23.61 3.08c-1.416.242-2.692 1.001-3.58 2.13a7.49 7.49 0 0 0-1.47 3.91c0 11.454-.314 21.027-.94 28.72a95.88 95.88 0 0 0-14.42 7.42l-26.42-15.95c-.558-.332-1.179-.542-1.824-.618a4.62 4.62 0 0 0-1.916.178c-1.366.287-2.601 1.01-3.52 2.06l-23.36 27.92a5.84 5.84 0 0 0-1.41 3.83c-.027.659.08 1.316.316 1.931a4.83 4.83 0 0 0 1.054 1.649l19.9 22.81a100.69 100.69 0 0 0-5.07 16.79c-3.46.874-8.39 1.967-14.79 3.28l-12.88 2.81c-1.333.293-2.542.992-3.46 2-2.274 2.707-1.764 16.814 1.53 42.32a6.49 6.49 0 0 0 2.16 3.86c.518.494 1.13.879 1.8 1.131a5.33 5.33 0 0 0 2.1.339l29 1.47a85.41 85.41 0 0 0 7.41 14.15l-15.85 26a4.98 4.98 0 0 0-.753 1.878c-.121.671-.103 1.359.053 2.022.225 1.43.961 2.73 2.07 3.66l28.06 23.48c2.31 1.94 4.84 2 7.56.17 5.166-3.713 12.833-10.54 23-20.48a89.73 89.73 0 0 0 15.54 5l6 28.1a6.99 6.99 0 0 0 2.28 3.71c1.906 1.6 8.36 1.914 19.36.94s18.943-2.003 23.83-3.09a5.08 5.08 0 0 0 1.934-.646c.595-.344 1.114-.804 1.526-1.354a7.58 7.58 0 0 0 1.46-3.9c0-11.46.313-21.033.94-28.72 5.005-2.057 9.832-4.525 14.43-7.38l26.42 16a4.5 4.5 0 0 0 1.821.63c.646.076 1.3.011 1.919-.19 1.366-.284 2.603-1.007 3.52-2.06l23.35-27.91c.926-1.078 1.428-2.458 1.41-3.88h0zm-105-13.08a50.37 50.37 0 0 1-49.108-26.85c-4.613-8.83-6.504-18.83-5.433-28.735s5.054-19.269 11.447-26.91a50.37 50.37 0 0 1 53.712-15.736c9.505 2.982 17.913 8.717 24.159 16.478s10.051 17.2 10.933 27.123a50.37 50.37 0 0 1-45.71 54.63h0z" class="Z"/><path d="M340.87 860.48a5.71 5.71 0 0 0-1.24-3.73l-20-22.66a136.14 136.14 0 0 0 5.22-16.66c3.333-.96 8.123-2.087 14.37-3.38l13.16-2.84c1.313-.334 2.508-1.026 3.45-2 2.28-2.713 1.77-16.82-1.53-42.32a6.51 6.51 0 0 0-2.15-3.86c-1.074-.96-2.469-1.484-3.91-1.47l-29-1.47c-2.024-4.935-4.501-9.672-7.4-14.15l15.84-26a5.09 5.09 0 0 0 .75-1.878 5.08 5.08 0 0 0-.04-2.022c-.228-1.431-.967-2.731-2.08-3.66l-28.06-23.49c-2.32-1.93-4.83-2-7.56-.16-5.08 3.62-12.717 10.397-22.91 20.33a95.97 95.97 0 0 0-15.66-4.89l-6-28.11c-.356-1.44-1.153-2.734-2.28-3.7-1.92-1.613-8.38-1.97-19.38-1.07s-18.87 1.923-23.61 3.07c-1.416.242-2.692 1.001-3.58 2.13-.85 1.138-1.36 2.494-1.47 3.91 0 11.453-.313 21.027-.94 28.72-5.009 2.066-9.836 4.548-14.43 7.42L154 700.61c-.558-.332-1.179-.542-1.823-.618s-1.298-.015-1.917.178a6.44 6.44 0 0 0-3.52 2.06l-23.36 27.92a5.86 5.86 0 0 0-1.41 3.83c-.027.659.081 1.316.316 1.931s.594 1.177 1.054 1.649l19.9 22.81c-2.174 5.439-3.87 11.057-5.07 16.79-3.46.867-8.393 1.96-14.8 3.28l-12.87 2.81c-1.332.293-2.541.992-3.46 2-2.273 2.713-1.763 16.823 1.53 42.33.246 1.497 1.011 2.86 2.16 3.85.517.496 1.129.882 1.799 1.135a5.32 5.32 0 0 0 2.101.335l29 1.47c2.024 4.935 4.501 9.672 7.4 14.15l-15.85 26c-.372.572-.625 1.213-.745 1.884a5.1 5.1 0 0 0 .045 2.026c.233 1.424.967 2.719 2.07 3.65l28.07 23.49c2.31 1.93 4.84 2 7.56.16 5.16-3.713 12.827-10.54 23-20.48a88.63 88.63 0 0 0 15.54 5l6 28.11a7 7 0 0 0 2.28 3.7c1.907 1.6 8.36 1.913 19.36.94s18.917-2.003 23.75-3.09c.682-.083 1.34-.302 1.935-.646s1.113-.804 1.525-1.354a7.58 7.58 0 0 0 1.46-3.9c0-11.46.313-21.033.94-28.72 5.009-2.069 9.836-4.554 14.43-7.43l26.42 16c.556.335 1.178.547 1.823.621s1.299.009 1.917-.191c1.365-.282 2.599-1.006 3.51-2.06l23.36-27.91c.928-1.064 1.44-2.428 1.44-3.84h0zm-105-13.08c-8.251.733-16.555-.58-24.178-3.823a50.37 50.37 0 0 1-19.52-14.769c-5.193-6.454-8.715-14.088-10.253-22.228a50.38 50.38 0 0 1 1.435-24.436 50.37 50.37 0 0 1 12.785-20.873 50.38 50.38 0 0 1 21.116-12.383c7.949-2.328 16.35-2.66 24.459-.966A50.37 50.37 0 0 1 263.74 758.6c7.64 6.394 13.212 14.909 16.012 24.47a50.37 50.37 0 0 1-.28 29.241 50.38 50.38 0 0 1-16.479 24.158c-7.761 6.245-17.2 10.05-27.123 10.931h0z" fill="#eee"/><path d="M211.5 603.5c-6 57.62-70 169.93-67.41 179.35.66 2.38 77.5 44.29 88.78 50.58-.71.05-66.67 31.83-72.48 40.27-8-5.83-67.64-23.27-89.84-53.18-52.29-70.44 51.88-241.3 73.2-263.36 65.63-67.91 89.12-57.61 89.12-57.61A548.34 548.34 0 0 0 211.5 603.5h0z" fill="#738eb5"/><path d="M353.624 401.255c2.466 3.635 2.842 3.117 1.149 5.886-1.16 1.905-5.18 6.049-6.825 7.607-3.578 3.419 3.869-1.027 7.441-3.105 2.778-2.078 4.127-2.527 6.111-5.643 1.323-2.078.257-3.88-2.5-6-10.556-11.897-8.036-17.283-8.714-25.998-.015-.196-5.425 14.14 2.941 26.56l.397.693z" fill="#f1b281"/><path d="M374.619 431.865c-4.618 0-43.618 2.635-56.118-2.365 0 3.635 15.143 19.5 30.252 19.5s25.866-13 25.866-17.135z" fill="#f9ecec"/><g fill="#150c0c" class="Y"><circle cx="313.501" cy="378.5" r="9.5"/><circle cx="381.501" cy="378.5" r="9.5"/></g><g class="S"><path d="M367.75 346.543c15.646-1.465 26.682 3.25 34.859 7.668 3.922 2.118 5.917 6.684.205 4.468-8.093-3.139-21.024-5.567-31.821-4.175-3.898.503-9.73-7.354-3.243-7.961zm-41.875 3c-15.646-1.465-26.682 3.25-34.859 7.668-3.922 2.118-5.917 6.684-.205 4.468 8.093-3.139 21.024-5.567 31.821-4.175 3.898.503 9.73-7.354 3.243-7.961z" class="Y"/><path d="M475.5 501c-8-2-19-2-19-2l-59.5-.001c-3 .001-3.154-.5-3.866.539-2.058 3-2 3.501-2 3.501L385.5 512.5c15.001 8.067 27.691 8.039 43.191 11.039S473.5 533 473.5 533l12.5-13.5s2.5-3 9-8.5c-7-5.5-11.5-7-19.5-10z" class="W"/></g><g class="T"><path d="M1372.73 1019.62l-38.23-579.119c34.6 13.41 117.29 11.36 150 30 26.7 15.2 28.79 32.5 36 51.5 11 29 32.5 152 32.5 152s-19.15-40.54-22-70.5c8.5 0-14.5-25.415-3-28 7.43-1.67 6.93 11.39 14.5 9.5 17.63-2.47 5.48 18.71 21.5 18.5-5 115.93 23 149.5-5 156.5-43.23 0-47-32-59.5-53s-8-21-25-48c3 112.7 26.81 245.88 31.64 360.709m-241.24.03l7.24-113.119 43.15-9.36-6.34-74.09-31.54-.34 22.53-377.63c-31.65 1.849-70.44 7.3-105.94 16.8-53.07 38-42.07 87.75-86.46 155-65.08 98.79-111.18 191.91-94.78 247 3.17 11.35-7.34 13.07 0 20.74 19.52 20.36 48.56 23.7 94.78 28a587.78 587.78 0 0 0 40.39 2.19l-7 99.239 123.97 5.57zm-106.3-248.639c-.16 3-1.17 16.36-2.5 33.38-.17 4-.5 7.84-.83 12-19-1.33-37.55-3.17-55.74-5.17 3.67-15.85 9.35-33 15.52-51.73 12.76-38.323 30.3-74.879 52.23-108.8l-8.68 120.32z"/></g><use xlink:href="#C" class="V"/><g class="T"><path d="M1409.58 1019.74H1264.9l18.19-288.999 16.85-285.52 68.59.17 41.05 574.349h0zm114.27-349.28l5.93-111.459H1595l-10.78 183.433c-2.87 5.998-12.83 18.293-29.65 19.493-16.81 1.2-30.72-12.495-35.57-19.493l4.85-71.974z"/></g><path d="M1495.5 700.001l32-123-8.99 166s-5.01-6.5-11.51-20.5c-8.5-15.5-11.5-22.5-11.5-22.5z" class="S W"/><path d="M1370.2 401.221l-3 44.55c-4.34 4.38-32.86 162.12-32.86 162.12s-30.34-158.58-34.13-163.45l2.17-38.79c.89 1.021 2.02 1.799 3.29 2.26.79.655 1.7 1.148 2.68 1.45a3.64 3.64 0 0 0 1.27.6c.49 0 1 .31 1.31.07 4 1 6.66.4 8.51-.52a6.46 6.46 0 0 0 1.19-.7c1.13-.701 2.12-1.603 2.93-2.66" class="X"/><path opacity=".7" d="M1368.26 429.281c.35-6.83 1.94-16.54 1.94-16.54s-8.87-23.9-19.41-23.27c-22.14 1.33-33.13-15.41-52.3-23.55 1.27 12.8 4.79 25.19 4 38 0 .83-.8 13.17-.87 14 2.55 3.33 13.45 19.88 34.49 21.28 13.29.8 29.22-4.04 32.15-9.92h0z" fill="#cc8052"/><path d="M1268.73 286.571c-1.09 10.18-3.78 36.06-1.9 46.32.06.3 0-1.92 0-2-20.72-1.67-10.71 24.13-5.66 33.78 1.6 3.05 4.09 7.32 7.72 8.78 2.55 1 6.78.36 9-.37 14.11 29.39 26.11 39.48 30.11 43.42 19.45 19.37 42.09 19.86 66.14 8.25 18.06-8.72 48.1-39.9 55-93.93 1.59-12.5 3.61-40.6-2.85-60.17-5.26-15.94-13.66-32.57-28.13-43.86-20.65-16.1-49.62-15.25-74.79-11.24-38.78 6.19-51.37 40.92-54.64 71.02h0z" class="X"/><g fill="#ffcd7e"><path d="M1270.93 274.371s8.42-11.13 18.49-12.24 21.11 7.88 21.11 7.88c11.52-18.83 42.48-21 42.48-21 35.61.16 62.91 33.59 76.46 32.31 6.26-.59 8.42-4 13.29-13.84s4.57-33.78-13.9-52.66c0 0-81.68-68.5-121.1-1.78 0 0-38.69-7.1-43.78 9.84-7.98 26.44 6.95 51.49 6.95 51.49z"/><path d="M1264.4 221.771s-21.52 61.999-2.75 109.159l8.45 3.361s-5.73-45.35 12-75.06l-17.7-37.46z"/></g><path d="M1351.95 360.638c1.94 3.311 1.77 3.837.33 5.325l-4.8 5.046c-3.11 3.264 9.92 2.084 12.34-.44 2.01-2.106 4.32-3.493 5.41-6.248 1.25-3.264-1.01-4.422-3.23-6.32-6.37-5.394-7.95-14.354-9.76-22.595-.73-3.265-6.82 13.959-.29 25.232z" fill="#e1a271"/><g fill="#eee"><path d="M1432.16 303.551v40.32c0 2.103-.57 4.167-1.66 5.969-1.08 1.801-2.64 3.271-4.5 4.251l-5.28 2.79a59.46 59.46 0 0 1-24.65 6.822 59.43 59.43 0 0 1-25.24-4.172 12 12 0 0 1-5.5-4.402c-1.35-1.984-2.07-4.328-2.08-6.728v-2.66c0-5-2.76-7.92-6.8-10.28a12.7 12.7 0 0 0-6.38-1.721 12.69 12.69 0 0 0-6.37 1.721c-4.06 2.37-7.62 5.29-7.62 10.32v2.66c0 2.399-.73 4.742-2.08 6.726a12 12 0 0 1-5.49 4.404 59.43 59.43 0 0 1-25.24 4.172c-8.62-.457-17.03-2.785-24.66-6.822l-5.28-2.79c-1.86-.981-3.42-2.452-4.5-4.253-1.09-1.801-1.66-3.864-1.66-5.967v-40.36a5.59 5.59 0 0 1 1.38-3.677 5.61 5.61 0 0 1 3.45-1.873c51.53-7.387 103.84-7.387 155.37 0 1.34.191 2.56.858 3.45 1.88.88 1.022 1.36 2.329 1.36 3.68"/><path d="M1266 299.071a534.63 534.63 0 0 1 167.73 0z"/></g><path d="M1266 299.071a534.63 534.63 0 0 1 167.73 0" stroke="#1d1d1b" stroke-width="4" stroke-miterlimit="10"/><path d="M1571.16 455.21c3.22-6.65 2.64-13.64.62-20s-5.43-12.06-9.2-18.16-7.69-12.57-10.07-20.47-1.73-16.93.49-24.5c4.8-15.44 14.61-26.82 21.37-38.46 3.39-5.89 6.16-11.87 7.26-18.49 1.41-6.793.56-13.862-2.41-20.13 5.58 4.89 8.29 12.81 8.65 20.48a52.13 52.13 0 0 1-4.57 22.52c-5.87 14-14.67 25.41-18.09 37.71-1.98 5.764-2.33 11.962-1 17.91 1.16 6.05 4.32 12.17 7.17 18.8 3 6.47 5.92 13.95 6.56 21.65s-1.13 16.17-6.78 21.14h0z" class="T"/><use xlink:href="#C" class="V"/><g fill="#809bce"><ellipse cx="1381.5" cy="338.001" rx="8.5" ry="10"/><ellipse cx="1316.5" cy="338.001" rx="8.5" ry="10"/></g><path d="M1322 390.882c4.19-3.656 44.15 5.609 51 0 0 0-13.03 19.119-25.31 19.119-12.27 0-25.69-19.119-25.69-19.119z" class="T"/><g fill="#646464"><path d="M1369.69 311.591c.35-.052.69-.12 1.02-.205 20.47-4.647 30.88 6.657 30.6 6.146.97.868 2.33 1.532 3.13 1.464s.75-.885-.19-1.821c-.02.527-9.12-13.944-33.59-9.228-1.67.409-2.23 3.848-.99 3.644h.02zm-40.38 6c-.35-.052-.69-.12-1.02-.205-20.47-4.647-30.88 6.657-30.6 6.146-.97.868-2.33 1.532-3.13 1.464s-.75-.885.19-1.821c.02.527 9.12-13.944 33.59-9.228 1.67.409 2.23 3.848.99 3.644h-.02z" fill-opacity=".6"/></g><path d="M1467 463.499c-21.5-7-69.5-11.5-69.5-11.5l-28.5-3.5c0-1.5-.5-1.5-.5-3h-1.5L1364 456c18.5 5 42.5 13 42.5 13l53.5 19.5 57.5 26s-5.5-17.501-13-28.001h0c-10-10-16-16-37.5-23z" class="S W"/><g fill="#949494"><path d="M747.8 647.611c-26.06-44.15-41.18-97.61-14.89-145.11 2.66-4.82 5.84-10.06 11.13-11.57 11.37-3.25 26.42 1.4 35.93 7.54 33.03 21.28 52.11 59.53 69.71 93.53 18.28 35.37 33.91 72 52.29 107.35 7.45 14.3 15 28.8 18.62 44.5 3.2 13.76 2.95 29.35-2.76 42.44-24.71 56.57-83-16.48-100.72-38.56a851.11 851.11 0 0 1-69.31-100.12h0z"/><path d="M789.87 819.291h-257l-.07-1.51a878.88 878.88 0 0 0-22.85-160.33c-3.55-14.9-9.78-34.37-14.61-54.85-8-34-12.18-68.72 6-91.86 8.21-10.45 22.83-17.72 34.8-22.9 23.35-10.09 47.22-23.65 72.22-28 26.35-4.64 55.65-7.5 81.92-.87 16.68 4.22 32.28 12 47.2 20.42 12.94 7.3 28.82 13.59 35.11 27.17 15.22 32.91 19.24 236.22 18.44 247.85-1.52 21.59-1.33 43.23-1.16 64.88z"/><path d="M387.261 675.152l-21.19 38.73c-14.13 26.33-40.37 84.819 1.64 99.279 21.16 7.28 33.27.161 47.25-15.259 52.987-58.428 97.983-123.63 133.81-193.901 13.31-26.11 48.65-94.15 5.72-109.69a52.15 52.15 0 0 0-21.257-2.872c-7.208.527-14.228 2.547-20.613 5.932-5.728 3.272-11.055 7.202-15.87 11.71-31 27.63-53 63.281-72.66 99.431l-36.83 66.64h0zm710.639 74.399l-10.86-1.78a910.4 910.4 0 0 1-52.63-9.84c-34.56-7.52-69.33-14-104.52-17.3l-11.2-1c-15.77-1.19-32.3-1.58-46.74 6s-25.95 25.37-22.4 42.6c2.48 12.08 11.72 21.18 22 25.77s21.58 5.38 32.67 6.13l107.78 7.25 53.36 3.65c17 1.18 34.23 3.58 51.26 3.57 7.2 0 15.25-1.36 21.3-6.17 8.42-6.68 13.48-20.91 14.3-32 .42-5.77-.71-12.78-5.13-16.35-2.37-1.91-5.38-2.5-8.27-3l-40.92-7.53h0z"/></g><path opacity=".1" d="M789.87 819.291h-257l-.07-1.51c-2.666-54.033-10.315-107.704-22.85-160.33-1.92-8.05-4.62-17.43-7.46-27.58 1.648 3.203 3.133 6.487 4.45 9.84 10.29 25 18.92 65.07 40.32 82.59 21.75 17.8 55.2 25.31 82.23 29.58 31.57 5 63.66 5.37 95.56 7.31 20.63 1.25 43.4 4.22 57 19.83a61.38 61.38 0 0 1 7.81 11.77c-.14 9.5-.07 19 .01 28.5h0z" class="S"/><path d="M593.86 767.072l-10.86-1.78c-17.62-2.767-35.16-6.05-52.62-9.85-34.57-7.51-69.34-14-104.53-17.3l-11.19-.95c-15.78-1.19-32.31-1.58-46.75 6s-25.91 25.35-22.39 42.55c2.47 12.09 11.72 21.18 22 25.77s21.58 5.38 32.67 6.13l107.81 7.26 53.36 3.65c17 1.18 34.22 3.58 51.25 3.56 7.21 0 15.25-1.36 21.3-6.16 8.42-6.69 13.48-20.91 14.3-32 .42-5.77-.7-12.78-5.13-16.36-2.36-1.91-5.37-2.49-8.27-3l-40.95-7.52h0z" fill="#949494"/><path d="M630.46 512.401c-12.78-4.1-23.31-12-27.26-24.67-3.58-11.46 2.07-24.36 3.07-35.92.97-11.088 1.09-22.234.36-33.34-.67-10.26-1.65-21-.07-31.17.89-5.85 4.1-4.85 10-7.17s12.54-2.35 19-2.33c13.16 0 47.45-.92 55.59 10.62 3.73 5.3 4 12 4.2 18.28.21 7.62 1.56 17.49 2.81 28.11.56 4.74.21 9.45.94 14.15.81 5.26 2.81 10.31 4.56 15.35 6.62 19.06.42 37.19-20.2 45.92-14.8 6.26-35.91 7.66-53 2.17z" fill="#f9dbba"/><path opacity=".1" d="M605.809 373.001c.89-5.85 4.1-4.85 10-7.17s12.54-2.35 19-2.33c13.16 0 47.45-.92 55.59 10.62 3.73 5.3 4 12 4.2 18.28.21 7.62 1.56 17.49 2.81 28.12.56 4.73.21 9.44.94 14.14.62 4-.21 11.72 1.17 16.15-12.75 4.73-30.33 3.27-43.63 0-24-5.9-36.84-22.71-49.79-42.11l-.21-4.53c-.68-10.28-1.66-20.97-.08-31.17h0z" class="S"/><g fill="#f9dbba"><path d="M587.519 312.181c.11-17.57 2.53-34.23 7.05-48.07 19.5-59.71 94-74.46 138.84-31.6 50 47.8 30.88 162.08-21.8 202.22-7.106 5.329-15.322 8.988-24.038 10.705s-17.705 1.449-26.302-.785c-51.76-13.88-74.08-77.58-73.75-132.47h0z"/><path d="M597.31 313.661c-22.91-12.53-30 19.2-26 35 1.503 6.572 4.312 12.775 8.26 18.24 5.45 7.23 21 19.22 30 11.31 4.08-3.59 4.5-9.68 4.62-15.11.33-14.56-1.35-40.95-16.88-49.44zm36.849 508.15c8.69 1.79 15.48 9.42 24.13 12 6.17 1.82 12.77.85 18.7-1.38 5.45-2 11-3.13 16.59-4.93 4.36-1.39 10.25-4.33 14.94-3.36 12.28 2.56 24.53 11.3 35.66 17 2.5 1.28 5.24 2.59 8 2.07s5.06-3.87 3.49-6.2c3.21 3 7.45 9 12.61 6.65 2.12-1 3.39-3.75 2.22-5.74 1.78 1.94 3.64 4 6.09 4.92s5.67.55 7.11-1.66c.627-1.078.955-2.304.95-3.55.043-4.285-.933-8.518-2.85-12.35-8.77-19.14-28.6-33.33-45.47-44.73-3-2-6-4.06-9.47-5.11-3.121-.819-6.345-1.176-9.57-1.06-20.97-.08-41.809 3.299-61.68 10-4.29 1.45-9 .22-13.29-.58-3.17-.6-6.48-1.18-9.57-.28-3.46 1-6.14 3.75-8.25 6.68-3.87 5.37-6.84 12.49-6.37 19.25.35 5.13.74 10.67 6.77 11.74 2.45.44 5 .17 7.44.43a17.62 17.62 0 0 1 1.82.19h0z"/></g><g class="S"><path d="M1012.13 819.461H805.29a33.21 33.21 0 0 1-33.21-33.21h240v33.21h.05 0z"/><path d="M983 794.441l42.81-217.93a12.24 12.24 0 0 1 4.23-7.104c2.18-1.807 4.93-2.799 7.77-2.806h284.58c1.93.002 3.82.462 5.54 1.342 1.71.88 3.19 2.154 4.32 3.718l7.75 9.58-6.27 3.4-42.03 214.54c-.55 2.782-2.05 5.288-4.23 7.092a12.28 12.28 0 0 1-7.77 2.808H995.07c-1.815.004-3.608-.394-5.251-1.166s-3.093-1.899-4.248-3.299a12.26 12.26 0 0 1-2.428-4.799c-.445-1.759-.494-3.596-.143-5.376h0z"/></g><path d="M1287.68 819H1003.1c-1.81-.005-3.594-.411-5.228-1.187s-3.076-1.905-4.222-3.304-1.97-3.035-2.411-4.789-.488-3.585-.139-5.36l42.8-217.93c.55-2.792 2.05-5.306 4.25-7.114s4.95-2.796 7.8-2.795h284.58a12.29 12.29 0 0 1 5.23 1.187c1.63.777 3.07 1.905 4.22 3.304a12.21 12.21 0 0 1 2.41 4.789 12.27 12.27 0 0 1 .14 5.359l-42.81 217.931c-.55 2.792-2.04 5.307-4.24 7.115a12.26 12.26 0 0 1-7.8 2.794z" fill="#333"/><path d="M1198.17 692.391c-2.63 14.7-16.67 26.62-31.38 26.62s-24.32-11.92-21.48-26.62 16.88-26.62 31.37-26.62 24.11 11.92 21.49 26.62h0z" class="S"/><g fill="#42210b"><path d="M732.81 272.411c-26 5.71-27.86 16-64.27.35-40.76-17.56-79 1.42-76.07 90.69 0 0-57.75-149.23 50.6-173.18 70.68-15.63 114.2 34.51 118.83 44.46 7.58 16.32 19.41 58.06-1.86 108.43-.04 0 6.88-70.93-27.23-70.75h0z"/><path d="M744.78 210.25s-8.38-19.47-40.62-22c0 0 18.09 8.12 21 16.74a24.79 24.79 0 0 0 11.47 12.8s21.62 10.9 30.31 16.93c-.02-.04-4.79-18.55-22.16-24.47h0zm-108.219-17.1s-43.32 2.3-57 42.54c0 0 17.35-18.65 37-23.18l20-19.36zm115.11 182.261s-14.23 32-46.32 26c-34.69-6.47-33.94-2.81-55.88 1.61-14 2.82-52.75-29.51-52.75-29.51s16.28 52.49 51.48 67.04c32.7 13.45 68.21 2.45 84.74-22.35 15.88-23.83 18.73-42.79 18.73-42.79z"/></g><g class="S"><path d="M760.529 329.001h-7.058l-.471 4h8l-.471-4z"/><path d="M778.3 497.289C766.5 491 756.5 490 756.5 490l-26-14.5c-7.678-4.188-24.5-11.5-27-12.5 1.5 4.5 2.831 12.533 2.5 17.5-1 15-8 11.5 4 22s19.5 12.5 34.5 18.5 29 2.5 42 4 48 39 48 39-1.5-4-8-14.5c-17.024-27.5-36.401-45.921-48.2-52.211z" class="W"/><use xlink:href="#B" class="Y"/><path d="M718.395 352.47c4.503 0 8.154-4.234 8.154-9.457s-3.651-9.457-8.154-9.457-8.155 4.234-8.155 9.457 3.651 9.457 8.155 9.457z" class="Y"/></g><path d="M693.071 373.02c3.555 4.004 3.726 3.433 0 6.573-2.531 2.134-1.198.819-3.555 2.988-4.265 5.378-2.132 4.781 5.92 3.688 4.219-2.845 8.437-5.689 11.811-9.245 2.322-2.446-1.111-4.159-5.061-7.111-11.296-8.436-12.513-24-16.186-36.412-1.455-4.941.72 31.44 4.938 37.129l2.133 2.39z" fill="#eac8a4"/><path d="M702.433 410.144s-11.655-2.907-19.323-3.019c-8.372-.122-23.673-.869-23.673-.869s14.841 10.543 23.152 10.303c7.638-.221 19.844-6.415 19.844-6.415z" class="T"/><g class="S"><path d="M760.454 334.139c0-1.963 3.252-5.076-6.122-5.82s-14.163-1.845-24.446-1.87c-10.427 0-27.24.051-30.076 2.978s-4.968 3.832-11.039 3.841-9.663-.889-12.652-3.858-20.803-3.164-32.224-3.189c-11.591 0-16.923 1.099-28.021 1.886-11.217.787-7.167 4.23-7.141 6.362s1.418 2.149 4.245 4.729 3.168 10.152 3.168 10.152c3.116 21.555 13.586 26.538 30.203 26.098 16.295-.431 19.819-4.086 24.37-7.834s7.88-16.623 9.281-21.2 8.177-5.076 8.177-5.076 6.742.381 8.219 4.89 5.095 17.106 9.494 20.566 7.82 6.827 22.841 6.429c14.741-.397 23.64-5.482 25.813-25.379 0 0 .145-6.979 2.454-9.374s3.482-2.368 3.456-4.331h0zm-85.914 19.517c-1.953 9.187-8.322 19.457-27.75 19.457-19.886 0-21.703-7.005-23.571-10.795s-4.518-16.961-4.679-23.027 4.314-7.233 4.314-7.233c10.86-3.545 35.069-2.538 44.783.398s8.856 12.038 6.903 21.2h0zm77.347-15.059c0 5.601-1.979 17.808-3.499 21.378s-2.946 10.152-20.54 11.074c-17.993.956-24.311-8.807-26.416-17.766s-3.049-17.985 6.13-20.887 30.968-3.764 40.487-.457c0 0 3.846 1.066 3.838 6.658h0z"/><path d="M748.408 327.672c-7.237-7.871-24.697-10.594-38.76-5.198-1.632.626-3.462-.19-4.088-1.821s.189-3.462 1.821-4.088c16.331-6.266 36.55-3.114 45.686 6.824 1.182 1.287 1.098 3.288-.188 4.471s-3.289 1.099-4.471-.188zm-128.914 2.071c7.06-8.952 24.059-12.507 37.734-6.955 1.587.644 3.37-.316 3.983-2.145s-.177-3.834-1.764-4.478c-15.881-6.448-35.565-2.331-44.479 8.971-1.154 1.463-1.076 3.68.174 4.953s3.198 1.117 4.352-.346z" fill-opacity=".6"/><path d="M579.5 319.001l29.5 11.5.5 5.5-29.5-12-.5-5z"/></g><g fill="#e1e1e1"><path d="M1541.39 481.4l50.96-.498.66 67.967-50.96.498-.66-67.967z"/><path d="M1550.83 527.669l-70.35 124.17a19.08 19.08 0 0 0-2.48 9.566c.03 3.352.94 6.637 2.64 9.525s4.13 5.276 7.05 6.925 6.22 2.498 9.57 2.464l143.12-1.4a19.03 19.03 0 0 0 9.52-2.651 19.09 19.09 0 0 0 6.92-7.06c1.64-2.92 2.49-6.222 2.45-9.574s-.96-6.633-2.67-9.515l-72.77-122.77c-1.7-2.876-4.13-5.254-7.04-6.895s-6.21-2.487-9.55-2.455-6.62.943-9.5 2.64a19.08 19.08 0 0 0-6.91 7.03h0z"/></g><g fill="#cbcbcb"><path d="M1553.61 543.59l-59.15 104.39c-1.4 2.45-2.13 5.228-2.11 8.052s.78 5.593 2.21 8.025c1.44 2.433 3.49 4.443 5.95 5.825 2.47 1.383 5.25 2.089 8.07 2.048l120.32-1.18c2.83-.016 5.59-.777 8.03-2.209 2.43-1.431 4.44-3.48 5.83-5.94a16.13 16.13 0 0 0 2.06-8.064c-.04-2.823-.83-5.585-2.28-8.007l-61.16-103.22a15.91 15.91 0 0 0-5.92-5.833 15.96 15.96 0 0 0-8.04-2.078c-2.82.029-5.58.801-8.01 2.239a16.07 16.07 0 0 0-5.8 5.952h0z"/><path d="M1549.41 467.531l34.63-.338.88 89.606-34.63.338-.88-89.606z"/></g><path d="M1517.91 606.6l-23.45 41.38c-1.4 2.45-2.13 5.228-2.11 8.052s.78 5.593 2.21 8.025c1.44 2.433 3.49 4.443 5.95 5.825 2.47 1.383 5.25 2.089 8.07 2.048l120.32-1.18c2.83-.016 5.59-.778 8.03-2.209 2.43-1.431 4.44-3.48 5.83-5.94 1.38-2.46 2.09-5.242 2.06-8.064-.04-2.823-.83-5.586-2.28-8.007l-22.34-36.45" fill="#94abcd"/><g class="U"><path d="M1619 604.798c24.2-14.038 26.3-14.799 18.05-32.201-13.55-28.598-18.6-45.767-41.55-31.597-29.33 18.11-21.43 19.197-11 36.798 16 27 19.5 35.701 34.5 27zm-85.94-23.918c-5.6-1.1-8.38-16.83-5-28.75.36-1.29 4.82-16.66 13.41-17.06 3.89-.17 7.67 2.77 9.57 5.85 8 13.08-9.85 41.56-17.98 39.96z"/></g><path d="M1597.21 467.058l-60.94.595c-3.25.032-5.87 2.699-5.84 5.958l.02 1.99c.03 3.258 2.7 5.873 5.96 5.842l60.94-.596c3.25-.032 5.87-2.699 5.84-5.957l-.02-1.99a5.9 5.9 0 0 0-5.96-5.842z" fill="#e1e1e1"/></g><defs><clipPath id="A"><path d="M0 0h1861.48v819.01H0z" class="T"/></clipPath><path id="B" d="M649.689 352.47c4.503 0 8.154-4.234 8.154-9.457s-3.651-9.457-8.154-9.457-8.155 4.234-8.155 9.457 3.651 9.457 8.155 9.457z"/><path id="C" d="M1311.93 494.721l22.41 113.17 21-111.15c-14.15 15.08-28.63 13.74-43.41-2.02z"/></defs></svg>